<svg width="20" height="20" viewBox="0 0 20 20" fill="none" xmlns="http://www.w3.org/2000/svg">
<path d="M18.0917 6.07499C18.0142 5.99688 17.9221 5.93489 17.8205 5.89258C17.719 5.85027 17.61 5.82849 17.5 5.82849C17.39 5.82849 17.2811 5.85027 17.1795 5.89258C17.078 5.93489 16.9858 5.99688 16.9084 6.07499L11.6667 11.325L8.0917 7.74166C8.01423 7.66355 7.92206 7.60155 7.82051 7.55925C7.71896 7.51694 7.61004 7.49516 7.50003 7.49516C7.39002 7.49516 7.2811 7.51694 7.17955 7.55925C7.078 7.60155 6.98583 7.66355 6.90836 7.74166L1.90836 12.7417C1.83026 12.8191 1.76826 12.9113 1.72595 13.0128C1.68365 13.1144 1.66187 13.2233 1.66187 13.3333C1.66187 13.4433 1.68365 13.5523 1.72595 13.6538C1.76826 13.7554 1.83026 13.8475 1.90836 13.925C1.98583 14.0031 2.078 14.0651 2.17955 14.1074C2.2811 14.1497 2.39002 14.1715 2.50003 14.1715C2.61004 14.1715 2.71896 14.1497 2.82051 14.1074C2.92206 14.0651 3.01423 14.0031 3.0917 13.925L7.50003 9.50832L11.075 13.0917C11.1525 13.1698 11.2447 13.2318 11.3462 13.2741C11.4478 13.3164 11.5567 13.3382 11.6667 13.3382C11.7767 13.3382 11.8856 13.3164 11.9872 13.2741C12.0887 13.2318 12.1809 13.1698 12.2584 13.0917L18.0917 7.25832C18.1698 7.18085 18.2318 7.08869 18.2741 6.98714C18.3164 6.88559 18.3382 6.77667 18.3382 6.66666C18.3382 6.55665 18.3164 6.44773 18.2741 6.34618C18.2318 6.24463 18.1698 6.15246 18.0917 6.07499Z" fill="#71839B"/>
</svg>
