<svg width="35" height="38" viewBox="0 0 35 38" fill="none" xmlns="http://www.w3.org/2000/svg">
<path d="M0 0H29C32.3137 0 35 2.68629 35 6V32C35 35.3137 32.3137 38 29 38H0V0Z" fill="#212539"/>
<path fill-rule="evenodd" clip-rule="evenodd" d="M25.5011 19.6258C25.5011 19.46 25.4353 19.3011 25.3181 19.1838C25.2008 19.0666 25.0419 19.0008 24.8761 19.0008H10.1349L14.0686 15.0683C14.1267 15.0102 14.1728 14.9412 14.2043 14.8653C14.2357 14.7893 14.2519 14.708 14.2519 14.6258C14.2519 14.5436 14.2357 14.4622 14.2043 14.3863C14.1728 14.3104 14.1267 14.2414 14.0686 14.1833C14.0105 14.1252 13.9415 14.0791 13.8656 14.0476C13.7897 14.0162 13.7083 14 13.6261 14C13.5439 14 13.4626 14.0162 13.3866 14.0476C13.3107 14.0791 13.2417 14.1252 13.1836 14.1833L8.18362 19.1833C8.12541 19.2413 8.07923 19.3103 8.04773 19.3862C8.01622 19.4622 8 19.5436 8 19.6258C8 19.708 8.01622 19.7894 8.04773 19.8653C8.07923 19.9413 8.12541 20.0102 8.18362 20.0683L13.1836 25.0683C13.2417 25.1264 13.3107 25.1725 13.3866 25.2039C13.4626 25.2354 13.5439 25.2516 13.6261 25.2516C13.7083 25.2516 13.7897 25.2354 13.8656 25.2039C13.9415 25.1725 14.0105 25.1264 14.0686 25.0683C14.1267 25.0102 14.1728 24.9412 14.2043 24.8653C14.2357 24.7893 14.2519 24.708 14.2519 24.6258C14.2519 24.5436 14.2357 24.4622 14.2043 24.3863C14.1728 24.3104 14.1267 24.2414 14.0686 24.1833L10.1349 20.2508H24.8761C25.0419 20.2508 25.2008 20.1849 25.3181 20.0677C25.4353 19.9505 25.5011 19.7915 25.5011 19.6258Z" fill="#4A5173"/>
</svg>
