<svg width="20" height="20" viewBox="0 0 20 20" fill="none" xmlns="http://www.w3.org/2000/svg">
<path d="M17.0751 6.26655C17.0703 6.24458 17.0703 6.22185 17.0751 6.19988C17.071 6.18065 17.071 6.16078 17.0751 6.14155V6.06655L17.0251 5.94155C17.0047 5.90744 16.9795 5.87655 16.9501 5.84988L16.8751 5.78322H16.8334L13.5501 3.70822L10.4501 1.79155C10.3783 1.73466 10.2963 1.69221 10.2084 1.66655H10.1417C10.0672 1.65412 9.99121 1.65412 9.91672 1.66655H9.83339C9.73659 1.68796 9.64378 1.72452 9.55839 1.77488L3.33339 5.64988L3.25839 5.70822L3.18339 5.77488L3.10006 5.83322L3.05839 5.88322L3.00839 6.00822V6.08322V6.13322C3.0003 6.18848 3.0003 6.24462 3.00839 6.29988V13.5749C3.00811 13.7165 3.04392 13.8559 3.11245 13.9798C3.18098 14.1037 3.27996 14.2082 3.40006 14.2832L9.65006 18.1499L9.77506 18.1999H9.84172C9.98271 18.2446 10.1341 18.2446 10.2751 18.1999H10.3417L10.4667 18.1499L16.6667 14.3416C16.7868 14.2665 16.8858 14.1621 16.9543 14.0381C17.0229 13.9142 17.0587 13.7748 17.0584 13.6332V6.35822C17.0584 6.35822 17.0751 6.29988 17.0751 6.26655ZM10.0001 3.47488L11.4834 4.39155L6.82506 7.27488L5.33339 6.35822L10.0001 3.47488ZM9.16672 15.9749L4.58339 13.1749V7.84988L9.16672 10.6832V15.9749ZM10.0001 9.21655L8.40839 8.25822L13.0667 5.36655L14.6667 6.35822L10.0001 9.21655ZM15.4167 13.1499L10.8334 15.9999V10.6832L15.4167 7.84988V13.1499Z" fill="#26CDD5"/>
</svg>
