<svg width="20" height="20" viewBox="0 0 20 20" fill="none" xmlns="http://www.w3.org/2000/svg">
<path d="M18.0917 6.07511C18.0142 5.997 17.9221 5.93501 17.8205 5.8927C17.719 5.8504 17.61 5.82861 17.5 5.82861C17.39 5.82861 17.2811 5.8504 17.1795 5.8927C17.078 5.93501 16.9858 5.997 16.9084 6.07511L11.6667 11.3251L8.0917 7.74178C8.01423 7.66367 7.92206 7.60168 7.82051 7.55937C7.71896 7.51706 7.61004 7.49528 7.50003 7.49528C7.39002 7.49528 7.2811 7.51706 7.17955 7.55937C7.078 7.60168 6.98583 7.66367 6.90836 7.74178L1.90836 12.7418C1.83026 12.8192 1.76826 12.9114 1.72595 13.013C1.68365 13.1145 1.66187 13.2234 1.66187 13.3334C1.66187 13.4435 1.68365 13.5524 1.72595 13.6539C1.76826 13.7555 1.83026 13.8476 1.90836 13.9251C1.98583 14.0032 2.078 14.0652 2.17955 14.1075C2.2811 14.1498 2.39002 14.1716 2.50003 14.1716C2.61004 14.1716 2.71896 14.1498 2.82051 14.1075C2.92206 14.0652 3.01423 14.0032 3.0917 13.9251L7.50003 9.50844L11.075 13.0918C11.1525 13.1699 11.2447 13.2319 11.3462 13.2742C11.4478 13.3165 11.5567 13.3383 11.6667 13.3383C11.7767 13.3383 11.8856 13.3165 11.9872 13.2742C12.0887 13.2319 12.1809 13.1699 12.2584 13.0918L18.0917 7.25845C18.1698 7.18098 18.2318 7.08881 18.2741 6.98726C18.3164 6.88571 18.3382 6.77679 18.3382 6.66678C18.3382 6.55677 18.3164 6.44785 18.2741 6.3463C18.2318 6.24475 18.1698 6.15258 18.0917 6.07511V6.07511Z" fill="#26CDD5"/>
</svg>
